#!OML:ASF G:\JayActor3\Patient Classification 1\Patient 1\Session 5\male.ASF
:FULLY-SPECIFIED
:DEGREES
245
root 5.3776 16.3792 -5.36538 641.89 80.9152 642.349
lowerback -1.57469 1.6024 10.7021
upperback 2.28336 1.82666 0.360114
thorax 3.61203 1.19983 -5.53171
lowerneck -9.79635 -0.643202 2.66717
upperneck 10.0664 -1.4002 1.53334
head 4.61893 -0.473866 -0.0534419
rclavicle 3.34704e-014 2.22639e-014
rhumerus -22.6607 7.14115 -90.9969
rradius 34.3308
rwrist -0.0979112
rhand -19.2928 -5.90558
rfingers 7.12502
rthumb 7.02248 -35.7691
lclavicle 3.34704e-014 2.22639e-014
lhumerus -35.3677 21.7185 74.1934
lradius 14.5088
lwrist -2.2866
lhand -16.729 13.953
lfingers 7.12502
lthumb 9.49685 43.719
rfemur 19.8407 -2.44908 32.7253
rtibia 19.633
rfoot -13.0164 -1.39536
rtoes -5.86006
lfemur -28.4046 6.54196 -16.1751
ltibia 23.962
lfoot -12.2008 4.45385
ltoes -15.8812
246
root 5.58768 16.3705 -5.37068 643.337 80.8853 643.887
lowerback -1.65238 1.6357 10.5903
upperback 2.22922 1.86749 0.306562
thorax 3.60344 1.21452 -5.52217
lowerneck -9.85902 -0.627805 2.74924
upperneck 10.2825 -1.39744 1.5408
head 4.69576 -0.463812 -0.0649411
rclavicle -1.5704e-014 -1.59028e-014
rhumerus -23.3007 7.04378 -91.2661
rradius 34.4663
rwrist -0.035449
rhand -19.1146 -5.87611
rfingers 7.12502
rthumb 7.19456 -35.7338
lclavicle -1.5704e-014 -1.59028e-014
lhumerus -35.6812 22.9206 73.2402
lradius 13.8832
lwrist -3.63262
lhand -16.493 14.0801
lfingers 7.12502
lthumb 9.72449 43.8356
rfemur 19.8441 -2.62093 32.3136
rtibia 20.9059
rfoot -11.769 -1.04326
rtoes -5.48216
lfemur -28.1529 6.50138 -16.0578
ltibia 24.9001
lfoot -11.4986 4.49998
ltoes -15.9633
247
root 5.79766 16.3666 -5.37496 644.906 80.942 645.589
lowerback -1.66467 1.65698 10.3559
upperback 2.17364 1.9046 0.234488
thorax 3.55092 1.2222 -5.46557
lowerneck -9.90779 -0.610407 2.82753
upperneck 10.4908 -1.39125 1.55159
head 4.76804 -0.452039 -0.0744752
rclavicle 3.20043e-014 -7.95139e-016
rhumerus -23.9669 6.8858 -91.527
rradius 34.5627
rwrist 0.109093
rhand -18.9579 -5.83337
rfingers 7.12502
rthumb 7.34578 -35.6858
lclavicle 3.20043e-014 -7.95139e-016
lhumerus -36.0347 24.0107 72.3321
lradius 13.3531
lwrist -4.85671
lhand -16.262 14.2376
lfingers 7.12502
lthumb 9.94744 43.9826
rfemur 19.7015 -2.82721 31.77
rtibia 22.4464
rfoot -10.3441 -0.825929
rtoes -4.83573
lfemur -27.8623 6.53646 -16.0403
ltibia 25.7749
lfoot -10.7019 4.48735
ltoes -15.7191
248
root 6.00533 16.3657 -5.37852 646.532 81.088 647.389
lowerback -1.59191 1.65993 10.0105
upperback 2.11988 1.9309 0.141822
thorax 3.44614 1.21978 -5.37124
lowerneck -9.95925 -0.591955 2.8909
upperneck 10.6935 -1.38309 1.57443
head 4.83932 -0.439063 -0.0777012
rclavicle -9.24349e-015 -2.38542e-015
rhumerus -24.6432 6.66585 -91.7737
rradius 34.6116
rwrist 0.326427
rhand -18.8332 -5.79032
rfingers 7.12502
rthumb 7.46616 -35.6386
lclavicle -9.24349e-015 -2.38542e-015
lhumerus -36.4042 25.0081 71.4691
lradius 12.9033
lwrist -5.98659
lhand -16.0226 14.4283
lfingers 7.12502
lthumb 10.1784 44.1621
rfemur 19.3799 -3.07126 31.101
rtibia 24.3036
rfoot -8.74825 -0.789552
rtoes -3.88206
lfemur -27.5154 6.68494 -16.1485
ltibia 26.6055
lfoot -9.91478 4.36817
ltoes -15.0713
249
root 6.20864 16.3662 -5.38163 648.15 81.324 649.223
lowerback -1.43274 1.64456 9.56893
upperback 2.07028 1.94466 0.0243974
thorax 3.29159 1.20747 -5.25193
lowerneck -10.0077 -0.577353 2.93818
upperneck 10.8814 -1.37972 1.61539
head 4.90583 -0.428059 -0.0729641
rclavicle -1.73937e-015 -1.19271e-014
rhumerus -25.3183 6.37331 -92.0008
rradius 34.6101
rwrist 0.603001
rhand -18.7407 -5.78187
rfingers 7.12502
rthumb 7.55547 -35.6269
lclavicle -1.73937e-015 -1.19271e-014
lhumerus -36.7637 25.921 70.6521
lradius 12.5159
lwrist -7.04152
lhand -15.7799 14.6176
lfingers 7.12502
lthumb 10.4125 44.3398
rfemur 18.8611 -3.35735 30.3159
rtibia 26.4976
rfoot -7.00111 -0.96685
rtoes -2.61726
lfemur -27.1001 6.94217 -16.396
ltibia 27.4045
lfoot -9.21316 4.12789
ltoes -14.1175
250
root 6.40625 16.367 -5.38453 649.75 81.6312 651.062
lowerback -1.20075 1.61364 9.06493
upperback 2.02681 1.94522 -0.117101
thorax 3.09874 1.18685 -5.12504
lowerneck -10.0617 -0.567138 2.97076
upperneck 11.0511 -1.38273 1.67669
head 4.96794 -0.419657 -0.0599295
rclavicle -1.57537e-014 -1.82882e-014
rhumerus -25.9738 6.01228 -92.2059
rradius 34.5536
rwrist 0.931461
rhand -18.6933 -5.80702
rfingers 7.12502
rthumb 7.60119 -35.6504
lclavicle -1.57537e-014 -1.82882e-014
lhumerus -37.0777 26.7329 69.9055
lradius 12.1862
lwrist -7.98709
lhand -15.5375 14.7874
lfingers 7.12502
lthumb 10.6463 44.4977
rfemur 18.1359 -3.65996 29.454
rtibia 29.0128
rfoot -5.14014 -1.37147
rtoes -1.03583
lfemur -26.6173 7.25957 -16.7575
ltibia 28.1649
lfoot -8.64609 3.78935
ltoes -12.8521
251
root 6.59782 16.3684 -5.38743 651.447 81.9865 653.003
lowerback -0.920001 1.57563 8.52514
upperback 1.9859 1.93911 -0.28037
thorax 2.8799 1.16248 -5.00188
lowerneck -10.116 -0.558989 2.99386
upperneck 11.1985 -1.38903 1.75451
head 5.02341 -0.412496 -0.040381
rclavicle 1.29707e-014 2.70347e-014
rhumerus -26.5999 5.59547 -92.3894
rradius 34.4371
rwrist 1.28771
rhand -18.6871 -5.86119
rfingers 7.12502
rthumb 7.60717 -35.7044
lclavicle 1.29707e-014 2.70347e-014
lhumerus -37.3247 27.4158 69.2576
lradius 11.9167
lwrist -8.77636
lhand -15.3056 14.9386
lfingers 7.12502
lthumb 10.8699 44.6372
rfemur 17.2054 -3.92918 28.5581
rtibia 31.8059
rfoot -3.22121 -1.9953
rtoes 0.825243
lfemur -26.0742 7.56155 -17.194
ltibia 28.855
lfoot -8.24335 3.42065
ltoes -11.3552
